<?xml version="1.0" standalone="no"?>
<!DOCTYPE svg PUBLIC "-//W3C//DTD SVG 20010904//EN"
 "https://www.w3.org/TR/2001/REC-SVG-20010904/DTD/svg10.dtd">
<svg version="1.0" xmlns="https://www.w3.org/2000/svg"
 width="500.000000pt" height="500.000000pt" viewBox="0 0 500.000000 500.000000"
 preserveAspectRatio="xMidYMid meet">
<metadata>
Created by potrace 1.14, written by Peter Selinger 2001-2017
</metadata>
<g transform="translate(0.000000,500.000000) scale(0.100000,-0.100000)"
fill="#000000" stroke="none">
<path d="M1300 4869 c-342 -5 -511 -12 -879 -34 -40 -2 -76 -6 -78 -9 -3 -2
12 -67 31 -143 20 -76 39 -146 41 -156 2 -10 7 -27 10 -37 3 -10 8 -28 10 -39
3 -12 7 -29 10 -38 2 -10 27 -106 55 -213 57 -217 55 -209 63 -230 3 -8 9 -33
13 -55 4 -22 9 -44 10 -50 11 -36 106 -395 110 -415 2 -14 11 -45 19 -70 33
-104 94 -370 99 -435 6 -71 11 -131 22 -290 3 -49 7 -112 9 -140 2 -27 6 -84
9 -125 3 -41 8 -109 11 -151 l5 -76 -54 -11 c-46 -9 -93 -36 -273 -159 -120
-81 -279 -188 -353 -238 -74 -50 -134 -95 -134 -100 1 -5 20 -20 43 -32 23
-12 93 -51 156 -87 63 -36 119 -66 125 -66 5 0 10 -4 10 -10 0 -5 5 -10 11
-10 6 0 72 -35 147 -79 75 -43 214 -120 307 -171 94 -51 224 -123 290 -160 66
-37 145 -81 175 -97 53 -29 215 -118 310 -171 25 -14 70 -38 100 -55 30 -17
89 -49 130 -72 41 -23 111 -62 155 -85 44 -24 122 -67 173 -97 51 -29 95 -53
98 -53 3 0 56 -29 117 -63 62 -35 192 -108 290 -162 l178 -98 276 37 c152 21
284 39 292 41 15 3 77 11 150 21 19 2 46 6 60 9 24 4 655 91 726 100 17 3 53
7 80 11 28 4 55 7 61 6 8 -2 14 34 18 105 4 60 9 128 11 153 2 25 7 83 10 130
3 47 8 121 11 165 3 44 7 103 9 130 3 62 16 238 20 285 3 36 -3 44 -180 245
-29 33 -64 74 -77 90 -12 17 -36 44 -52 60 -15 17 -44 50 -64 75 -20 25 -41
50 -47 55 -6 6 -37 42 -70 80 -32 39 -63 73 -68 76 -8 6 82 367 103 414 5 11
12 31 14 45 10 53 63 180 137 330 12 25 46 97 74 160 77 167 176 381 229 493
25 53 46 99 46 101 0 2 29 64 63 137 35 74 72 152 82 174 10 22 32 72 50 110
18 39 49 105 69 148 20 44 36 83 36 88 0 6 -36 101 -81 213 l-81 203 -126 32
c-70 18 -134 35 -142 38 -8 3 -19 7 -25 9 -5 1 -125 32 -265 68 -140 37 -268
71 -285 76 -130 39 -136 40 -790 60 -653 20 -1103 22 -1845 9z"/>
</g>
</svg>
